<?xml version="1.0" encoding="UTF-8" standalone="no"?>
<svg
   xmlns:dc="http://purl.org/dc/elements/1.1/"
   xmlns:cc="http://creativecommons.org/ns#"
   xmlns:rdf="http://www.w3.org/1999/02/22-rdf-syntax-ns#"
   xmlns:svg="http://www.w3.org/2000/svg"
   xmlns="http://www.w3.org/2000/svg"
   xmlns:sodipodi="http://sodipodi.sourceforge.net/DTD/sodipodi-0.dtd"
   xmlns:inkscape="http://www.inkscape.org/namespaces/inkscape"
   version="1.0"
   id="svg2"
   xml:space="preserve"
   style="overflow:visible"
   viewBox="0 0 52.144283 52.144283"
   height="100"
   width="100"
   sodipodi:docname="A.svg"
   inkscape:version="1.0.2 (e86c870879, 2021-01-15, custom)"><sodipodi:namedview
   pagecolor="#ffffff"
   bordercolor="#666666"
   borderopacity="1"
   objecttolerance="10"
   gridtolerance="10"
   guidetolerance="10"
   inkscape:pageopacity="0"
   inkscape:pageshadow="2"
   inkscape:window-width="2880"
   inkscape:window-height="1526"
   id="namedview10"
   showgrid="false"
   fit-margin-top="0"
   fit-margin-left="0"
   fit-margin-right="0"
   fit-margin-bottom="0"
   inkscape:zoom="2.1554252"
   inkscape:cx="170.5"
   inkscape:cy="170.5"
   inkscape:window-x="-11"
   inkscape:window-y="-11"
   inkscape:window-maximized="1"
   inkscape:current-layer="svg2" /><metadata
   id="metadata10"><rdf:RDF><cc:Work
       rdf:about=""><dc:format>image/svg+xml</dc:format><dc:type
         rdf:resource="http://purl.org/dc/dcmitype/StillImage" /><dc:title></dc:title></cc:Work></rdf:RDF></metadata><defs
   id="defs15" />

		<g
   id="Hilfslinien_anzeigen">
		</g>
		<g
   id="Vordergrund"
   transform="scale(0.29325513)">
			<g
   id="g8">
				<path
   id="path10"
   d="M 0,88.91113 C 0,39.80908 39.7998,0 88.90137,0 c 49.10157,0 88.91064,39.80908 88.91064,88.91113 0,49.10107 -39.80908,88.90088 -88.91064,88.90088 C 39.79981,177.81201 0,138.01221 0,88.91113 Z"
   style="fill:#ff811a" />
				<path
   id="path12"
   d="m 77.47119,98.63232 c -2.31006,0 -4.18994,-1.88037 -4.18994,-4.18896 l 15.62012,-56.75293 15.47852,55.60059 c 0.15137,3.46094 -1.72852,5.37109 -4.04785,5.37109 z m 39.26172,38.95069 c 1.69043,6.78711 7.81836,11.80615 15.11719,11.80615 8.60889,0 15.59082,-6.96777 15.59082,-15.57617 0,-1.83057 -0.31201,-3.59375 -0.8877,-5.21973 L 111.02002,30.15137 C 107.87109,20.96143 99.16016,14.3501 88.91113,14.3501 c -10.25879,0 -18.97998,6.60205 -22.11914,15.79102 l -35.51318,98.42822 c -0.58545,1.63965 -0.90771,3.41309 -0.90771,5.24365 0,8.6084 6.98193,15.57617 15.58105,15.57617 7.31006,0 13.43701,-5.01904 15.13184,-11.80615 l 3.74023,-13.34961 c 0.61475,-2.39307 2.80762,-4.17041 5.396,-4.17041 h 18.68115 l 18.69189,-0.01 c 2.58691,0 4.76953,1.78711 5.40967,4.18018 z"
   style="fill:#ffffff;fill-rule:evenodd" />
			</g>
		</g>
	</svg>
