<?xml version="1.0" encoding="UTF-8" standalone="no"?>
<svg
   xmlns:dc="http://purl.org/dc/elements/1.1/"
   xmlns:cc="http://creativecommons.org/ns#"
   xmlns:rdf="http://www.w3.org/1999/02/22-rdf-syntax-ns#"
   xmlns:svg="http://www.w3.org/2000/svg"
   xmlns="http://www.w3.org/2000/svg"
   xmlns:sodipodi="http://sodipodi.sourceforge.net/DTD/sodipodi-0.dtd"
   xmlns:inkscape="http://www.inkscape.org/namespaces/inkscape"
   width="100"
   height="100"
   viewBox="0 0 100 100"
   style="overflow:visible"
   xml:space="preserve"
   id="svg2"
   sodipodi:version="0.32"
   inkscape:version="1.0.2 (e86c870879, 2021-01-15, custom)"
   sodipodi:docname="R.svg"
   inkscape:output_extension="org.inkscape.output.svg.inkscape"
   version="1.0"><metadata
   id="metadata853"><rdf:RDF><cc:Work
       rdf:about=""><dc:format>image/svg+xml</dc:format><dc:type
         rdf:resource="http://purl.org/dc/dcmitype/StillImage" /><dc:title></dc:title></cc:Work></rdf:RDF></metadata><defs
   id="defs15" /><sodipodi:namedview
   inkscape:window-height="1526"
   inkscape:window-width="2880"
   inkscape:pageshadow="2"
   inkscape:pageopacity="0.0"
   guidetolerance="10.0"
   gridtolerance="10.0"
   objecttolerance="10.0"
   borderopacity="1.0"
   bordercolor="#666666"
   pagecolor="#ffffff"
   id="base"
   width="341px"
   height="341px"
   inkscape:zoom="1.5962793"
   inkscape:cx="123.02552"
   inkscape:cy="192.48031"
   inkscape:window-x="-11"
   inkscape:window-y="-11"
   inkscape:current-layer="svg2"
   showgrid="false"
   inkscape:window-maximized="1"
   inkscape:document-rotation="0"
   fit-margin-top="0"
   fit-margin-left="0"
   fit-margin-right="0"
   fit-margin-bottom="0"
   units="px" />
	
		<g
   id="Hilfslinien_anzeigen"
   transform="translate(0,-8.912e-4)">
		</g>
		<g
   id="Vordergrund"
   transform="scale(0.57652788,0.57657495)">
			<g
   id="g8">
				<path
   d="M 0,86.71875 C 0,38.82764 38.83301,0 86.71924,0 c 47.8999,0 86.73291,38.82764 86.73291,86.71875 0,47.90039 -38.83301,86.71924 -86.73291,86.71924 C 38.83301,173.43799 0,134.61914 0,86.71875 Z"
   id="path10" />
				<path
   style="fill:#ffffff;fill-rule:evenodd"
   d="m 74.12256,41.30908 c 2.04102,-0.54736 5.91797,-0.92822 12.021,-0.92822 13.10596,0 20.68896,6.27979 20.68896,18.30078 0,11.26025 -8.31982,18.83838 -22.18311,18.83838 H 74.12256 Z M 48.44385,146.25977 H 74.12256 V 96.54785 h 8.50098 c 11.45996,0 16.62598,4.63379 19.96094,20.52295 3.33008,15.15137 6.28906,25.67822 8.125,29.18896 h 26.60107 c -2.38672,-4.7998 -5.89795,-20.32178 -9.59912,-34.74072 -2.95898,-12.00732 -7.94873,-20.31738 -16.62109,-23.83838 v -0.36084 c 11.26904,-4.24805 21.61133,-15.51807 21.61133,-30.85986 0,-11.26904 -3.69092,-19.77979 -10.88916,-25.86914 -8.70068,-7.021 -21.25879,-9.79004 -38.64209,-9.79004 -13.47656,0 -26.0498,1.10889 -34.72656,2.57812 v 122.88087 z"
   id="path12" />
			</g>
		</g>
	</svg>
