<?xml version="1.0" encoding="UTF-8" standalone="no"?>
<svg
   xmlns:dc="http://purl.org/dc/elements/1.1/"
   xmlns:cc="http://creativecommons.org/ns#"
   xmlns:rdf="http://www.w3.org/1999/02/22-rdf-syntax-ns#"
   xmlns:svg="http://www.w3.org/2000/svg"
   xmlns="http://www.w3.org/2000/svg"
   xmlns:xlink="http://www.w3.org/1999/xlink"
   xmlns:sodipodi="http://sodipodi.sourceforge.net/DTD/sodipodi-0.dtd"
   xmlns:inkscape="http://www.inkscape.org/namespaces/inkscape"
   viewBox="0 0 102.16296 136.21732"
   xlink="http://www.w3.org/1999/xlink"
   version="1.1"
   id="svg32"
   sodipodi:docname="stadtrad_new.svg"
   inkscape:version="1.0.2 (e86c870879, 2021-01-15, custom)"
   width="102.16296"
   height="136.21732"
   style="fill:#777777">
  <metadata
     id="metadata38">
    <rdf:RDF>
      <cc:Work
         rdf:about="">
        <dc:format>image/svg+xml</dc:format>
        <dc:type
           rdf:resource="http://purl.org/dc/dcmitype/StillImage" />
        <dc:title />
      </cc:Work>
    </rdf:RDF>
  </metadata>
  <defs
     id="defs36" />
  <sodipodi:namedview
     pagecolor="#ffffff"
     bordercolor="#666666"
     borderopacity="1"
     objecttolerance="10"
     gridtolerance="10"
     guidetolerance="10"
     inkscape:pageopacity="0"
     inkscape:pageshadow="2"
     inkscape:window-width="2736"
     inkscape:window-height="1730"
     id="namedview34"
     showgrid="false"
     inkscape:zoom="4.21875"
     inkscape:cx="131.91111"
     inkscape:cy="-2.6980979"
     inkscape:window-x="2869"
     inkscape:window-y="-11"
     inkscape:window-maximized="1"
     inkscape:current-layer="svg32"
     fit-margin-top="0"
     fit-margin-left="0"
     fit-margin-right="0"
     fit-margin-bottom="0"
     inkscape:document-rotation="0" />
  <path
     d="M 45.831795,133.46899 C 7.1753519,77.428618 0,71.677162 0,51.081481 0,22.869871 22.869871,0 51.081481,0 c 28.211611,0 51.081479,22.869871 51.081479,51.081481 0,20.595681 -7.175349,26.347137 -45.831792,82.387509 -2.536781,3.66457 -7.962858,3.6643 -10.499373,0 z"
     id="path25"
     style="fill:#118617;fill-opacity:1;stroke-width:0.26604939"
     inkscape:connector-curvature="0" />
  <symbol
     viewBox="0 0 640 512"
     id="overlay_4a1740228097bb7d75923ab13edfa714"
     style="fill:#ffffff">
    <path
       d="m 512.509,192.001 c -16.373,-0.064 -32.03,2.955 -46.436,8.495 L 388.393,75.343 A 24,24 0 0 0 368.001,64 h -64 c -8.837,0 -16,7.163 -16,16 v 16 c 0,8.837 7.163,16 16,16 h 50.649 l 14.896,24 H 256.002 v -16 c 0,-8.837 -7.163,-16 -16,-16 h -87.459 c -13.441,0 -24.777,10.999 -24.536,24.437 0.232,13.044 10.876,23.563 23.995,23.563 h 48.726 l -29.417,47.52 C 157.878,194.69 143.407,192.037 128.319,192 58.094,191.83 0.412,249.012 0.002,319.236 -0.413,390.279 57.055,448 128.002,448 c 59.642,0 109.758,-40.793 123.967,-96 h 52.033 a 24,24 0 0 0 20.406,-11.367 l 85.962,-138.863 14.938,24.067 c -25.455,23.448 -41.385,57.081 -41.307,94.437 0.145,68.833 57.899,127.051 126.729,127.719 70.606,0.685 128.181,-55.803 129.255,-125.996 1.086,-70.941 -56.526,-129.72 -127.476,-129.996 z M 186.75,265.772 c 9.727,10.529 16.673,23.661 19.642,38.228 H 163.086 Z M 128.002,400 c -44.112,0 -80,-35.888 -80,-80 0,-44.112 35.888,-80 80,-80 5.869,0 11.586,0.653 17.099,1.859 L 99.596,315.368 C 89.715,331.327 101.213,352 120.002,352 h 81.3 c -12.37,28.225 -40.562,48 -73.3,48 z m 162.63,-96 h -35.624 c -3.96,-31.756 -19.556,-59.894 -42.383,-80.026 L 237.371,184 h 127.547 z m 217.057,95.886 c -41.036,-2.165 -74.049,-35.692 -75.627,-76.755 -0.812,-21.121 6.633,-40.518 19.335,-55.263 l 44.433,71.586 c 4.66,7.508 14.524,9.816 22.032,5.156 l 13.594,-8.437 c 7.508,-4.66 9.817,-14.524 5.156,-22.032 l -44.468,-71.643 a 79.901,79.901 0 0 1 19.858,-2.497 c 44.112,0 80,35.888 80,80 -10e-4,45.54 -38.252,82.316 -84.313,79.885 z"
       id="path27"
       inkscape:connector-curvature="0" />
  </symbol>
  <use
     xlink:href="#overlay_4a1740228097bb7d75923ab13edfa714"
     x="90"
     y="-75"
     width="200"
     id="use30"
     transform="matrix(0.45208678,0,0,0.45208678,-34.764311,44.958409)"
     height="100%" />
</svg>
